HIERARCHY
ROOT Hips
{
  OFFSET 0 89.5177 0.535
  CHANNELS 6 Xposition Yposition Zposition Zrotation Xrotation Yrotation
  JOINT Spine
  {
    OFFSET 12.0259 -0.162855 1.69034e-005
    CHANNELS 3 Zrotation Xrotation Yrotation
    JOINT Spine1
    {
      OFFSET 15.3169 -0.0121922 0
      CHANNELS 3 Zrotation Xrotation Yrotation
      JOINT Spine2
      {
        OFFSET 15.3176 -0.0121908 0
        CHANNELS 3 Zrotation Xrotation Yrotation
        JOINT Neck
        {
          OFFSET 19.9142 1.56338 0
          CHANNELS 3 Zrotation Xrotation Yrotation
          JOINT Head
          {
            OFFSET 6.92651 0 0
            CHANNELS 3 Zrotation Xrotation Yrotation
            End Site
            {
              OFFSET 20.7666 0 0
            }
          }
          JOINT LeftShoulder
          {
            OFFSET -6.20654 0.708824 7.28219
            CHANNELS 3 Zrotation Xrotation Yrotation
            JOINT LeftArm
            {
              OFFSET 14.108 0 -1.52588e-005
              CHANNELS 3 Zrotation Xrotation Yrotation
              JOINT LeftForeArm
              {
                OFFSET 28.5802 0 0
                CHANNELS 3 Zrotation Xrotation Yrotation
                JOINT LeftHand
                {
                  OFFSET 27.092 0 0
                  CHANNELS 3 Zrotation Xrotation Yrotation
                  End Site
                  {
                    OFFSET 9.55928 -0.186424 0.145352
                  }
                }
              }
            }
          }
          JOINT RightShoulder
          {
            OFFSET -6.20654 0.708866 -7.28218
            CHANNELS 3 Zrotation Xrotation Yrotation
            JOINT RightArm
            {
              OFFSET 14.108 0 1.52588e-005
              CHANNELS 3 Zrotation Xrotation Yrotation
              JOINT RightForeArm
              {
                OFFSET 28.5802 0 0
                CHANNELS 3 Zrotation Xrotation Yrotation
                JOINT RightHand
                {
                  OFFSET 27.092 0 0
                  CHANNELS 3 Zrotation Xrotation Yrotation
                  End Site
                  {
                    OFFSET 9.55929 -0.186417 -0.145354
                  }
                }
              }
            }
          }
        }
      }
    }
  }
  JOINT LeftUpLeg
  {
    OFFSET 0.005 -0.535 8.837
    CHANNELS 3 Zrotation Xrotation Yrotation
    JOINT LeftLeg
    {
      OFFSET 39.9035 0 0
      CHANNELS 3 Zrotation Xrotation Yrotation
      JOINT LeftFoot
      {
        OFFSET 39.6689 0 0
        CHANNELS 3 Zrotation Xrotation Yrotation
        JOINT LeftToe
        {
          OFFSET 10.1624 13.6296 0
          CHANNELS 3 Zrotation Xrotation Yrotation
          End Site
          {
            OFFSET 8.38147 0 0
          }
        }
      }
    }
  }
  JOINT RightUpLeg
  {
    OFFSET 0.005 -0.535 -8.837
    CHANNELS 3 Zrotation Xrotation Yrotation
    JOINT RightLeg
    {
      OFFSET 39.9035 0 0
      CHANNELS 3 Zrotation Xrotation Yrotation
      JOINT RightFoot
      {
        OFFSET 39.6689 0 0
        CHANNELS 3 Zrotation Xrotation Yrotation
        JOINT RightToe
        {
          OFFSET 10.1624 13.6296 0
          CHANNELS 3 Zrotation Xrotation Yrotation
          End Site
          {
            OFFSET 8.38147 0 0
          }
        }
      }
    }
  }
}
MOTION
Frames:	11
Frame Time:	0.0333333
193.12 85.1556 -85.7459 -133.195 76.6861 -145.602 1.9098 -0.590236 2.12009 3.84039 -1.10862 4.25912 3.84039 -1.10862 4.25911 -8.30748e-012 -9.0191e-006 -5.27751e-005 -13.1313 34.1014 -8.39113 -179.244 -2.47597 -73.0231 7.92586 -19.8404 56.3046 -87.5551 0 -6.36111e-015 -62.6346 -27.8645 -68.2278 -178.777 3.66307 71.5223 -4.58287 9.02185 -55.7102 -75.7687 1.98785e-015 -7.95139e-016 -58.2013 33.5495 54.2933 -15.6155 3.23606 -175.496 -45.0643 1.59028e-015 -3.18055e-015 28.0143 -3.19991 3.81903 90 3.97569e-016 -0 -34.2584 -4.06584 167.512 -38.3071 5.96354e-016 2.18663e-015 -1.52261 1.48378 0.982269 90 3.43428e-015 9.55875e-016 
187.473 83.0402 -82.6858 -128.774 76.2365 -149.824 2.01592 -0.903581 1.76168 4.05937 -1.74372 3.55482 4.05937 -1.74372 3.55481 -8.3043e-012 -9.0191e-006 -5.27751e-005 -14.9843 34.7664 -6.73058 -179.698 -0.973832 -72.7716 9.90629 -22.1672 51.9139 -82.5278 7.95139e-016 -3.18055e-015 -64.9113 -25.3174 -68.6458 -178.945 3.09468 71.1651 -0.26028 8.34573 -58.0984 -68.3168 5.96354e-016 -7.95139e-016 -55.4469 33.9281 51.4536 -18.6245 -0.0846504 -170.671 -55.8301 1.59028e-015 3.18055e-015 30.5993 -0.756647 0.209457 90 7.95139e-016 -0 -34.8206 -5.26964 165.34 -29.9748 6.4605e-016 -2.81094e-016 -4.2254 0.631803 2.10983 90 6.4605e-016 1.98785e-016 
182.241 80.9739 -79.2987 -118.982 75.9886 -159.028 2.04957 -1.24413 1.42776 4.13092 -2.43552 2.90025 4.13092 -2.43552 2.90024 -8.29794e-012 -9.0191e-006 -5.27751e-005 -13.3539 34.5527 -5.64865 -179.57 -1.38234 -72.7241 6.6668 -23.5913 47.7945 -72.3479 3.18055e-015 -0 -62.2431 -25.1218 -64.1541 -179.106 2.75319 72.001 5.04292 8.27424 -61.8748 -55.9534 -4.57205e-015 1.98785e-015 -51.0769 35.8077 49.1078 -21.2943 -4.58558 -167.65 -67.8577 -3.18055e-015 -1.59028e-015 28.6181 -2.88453 -1.07965 90 -2.38542e-015 3.18055e-015 -36.466 -8.35194 162.351 -36.149 7.95139e-016 2.5345e-015 1.38046 -7.84804 10.1521 90 -3.97569e-016 -0 
177.985 80.4968 -76.6134 -112.273 78.1405 -167.228 2.32745 -1.06032 1.6451 4.68551 -2.05202 3.33286 4.68551 -2.05202 3.33285 -8.3043e-012 -9.0191e-006 -5.27751e-005 -12.552 35.2225 -6.34286 -179.341 -1.93186 -71.1465 3.37427 -23.5051 45.1835 -64.4119 -4.77083e-015 -0 -53.6826 -26.34 -54.5951 -179.245 2.2028 71.0845 9.80203 11.8343 -61.9819 -38.8739 0 -2.38542e-015 -44.8026 39.6268 46.9745 -23.5237 -8.11851 -165.808 -77.1996 7.95139e-016 1.59028e-015 21.1944 -10.8203 2.95009 90 3.18055e-015 -3.18055e-015 -36.3893 -10.2481 163.979 -38.9769 -1.59028e-015 2.38542e-015 0.745267 -10.5011 12.0616 90 -9.93923e-016 -0 
174.588 80.7298 -73.8902 -109.658 80.7734 -168.957 2.21336 -0.957347 1.48168 4.45161 -1.85595 2.99997 4.45161 -1.85595 2.99996 -8.30907e-012 -9.0191e-006 -5.27751e-005 -10.572 37.0474 -6.82848 -179.098 -2.57654 -70.6945 1.79145 -18.7229 46.4515 -58.2831 -1.59028e-015 7.95139e-015 -52.5326 -23.7296 -48.8993 -179.998 0.00707908 71.069 19.0729 15.5874 -62.175 -21.9824 -6.36111e-015 2.38542e-015 -37.2164 38.6523 42.2833 -25.8228 -6.48432 -167.295 -80.6471 3.18055e-015 7.95139e-016 12.9654 -20.0438 9.93197 90 -1.59028e-015 -6.36111e-015 -34.7077 -8.08004 165.474 -38.8324 0 3.77691e-015 2.11355 -9.78349 11.4371 90 3.97569e-016 -3.97569e-016 
172.29 82.4491 -71.5741 -105.428 83.6867 -172.742 2.11646 -0.930095 1.40025 4.25581 -1.80708 2.83458 4.25581 -1.80708 2.83458 -8.3043e-012 -9.0191e-006 -5.27751e-005 -8.89241 39.8851 -6.65593 -178.653 -3.61268 -69.5288 1.67189 -12.8677 48.3926 -56.8822 -2.38542e-015 -3.97569e-015 -51.922 -22.5123 -45.239 179.746 -0.710333 70.3206 23.5418 12.6165 -59.6928 -19.5416 0 7.95139e-016 -40.903 37.215 46.7414 -24.8848 -2.81562 -168.243 -77.1925 2.38542e-015 3.97569e-015 14.3663 -15.505 7.92663 90 -4.77083e-015 4.77083e-015 -31.2199 -7.49334 167.689 -35.3532 -7.95139e-016 9.93923e-016 -0.34186 -10.1987 11.3145 90 -1.39149e-015 -3.97569e-016 
170.179 84.7393 -69.6197 -105.777 85.2991 -173.257 2.04363 -1.10848 1.58281 4.1182 -2.15889 3.20515 4.1182 -2.15889 3.20514 -8.30748e-012 -9.0191e-006 -5.27751e-005 -9.14729 42.513 -6.72256 -178.157 -4.52214 -67.7999 3.11523 -8.75239 50.2995 -59.0159 3.18055e-015 -3.18055e-015 -52.5551 -23.7447 -47.5075 -179.203 2.13152 69.4877 21.6159 7.11816 -57.2273 -26.9373 0 1.59028e-015 -46.1527 37.9764 49.7782 -24.852 1.31412 -168.094 -70.8432 1.59028e-015 -1.59028e-015 15.8984 -12.7889 8.27452 90 -1.59028e-015 1.59028e-015 -26.2598 -10.2937 170.592 -27.9521 3.18056e-015 -2.28602e-015 -3.11459 -10.99 11.9195 90 3.72721e-017 -0 
168.438 86.854 -68.2938 -120.871 86.2001 -157.217 1.71709 -1.43146 1.35559 3.46917 -2.82076 2.7549 3.46917 -2.82076 2.75489 -8.30748e-012 -9.0191e-006 -5.27751e-005 -9.55578 46.2635 -5.91214 -177.898 -5.12194 -67.6466 8.11551 -7.82245 53.433 -60.6175 7.95139e-016 1.59028e-015 -53.9677 -24.0975 -49.274 -178.448 4.20225 69.7104 19.9756 2.01811 -56.5437 -36.1384 -6.36111e-015 4.77083e-015 -48.4814 39.2845 52.0233 -25.376 5.57829 -169.144 -62.2201 3.18055e-015 1.59028e-015 14.4271 -7.45884 5.29856 90 0 -0 -23.1217 -10.9032 171.803 -21.4032 1.59028e-015 3.60297e-015 -6.23407 -11.0822 12.0315 90 -1.95679e-016 -6.21202e-017 
166.999 88.4293 -67.2271 -127.037 86.5353 -150.261 1.4848 -1.56025 1.21981 3.00413 -3.08751 2.48118 3.00413 -3.08751 2.48117 -8.3043e-012 -9.0191e-006 -5.27751e-005 -7.70709 49.444 -7.67218 -177.488 -6.14709 -67.7166 11.6743 -10.3017 54.4048 -61.0281 1.59028e-015 3.18055e-015 -55.0081 -27.5925 -55.3179 -178.188 5.23441 70.8761 20.9188 -2.31991 -57.2978 -46.0014 6.36111e-015 2.38542e-015 -49.7164 41.3325 54.1408 -25.1704 8.19605 -169.951 -53.7116 3.18055e-015 1.59028e-015 11.3535 -3.30317 2.49581 90 -1.59028e-015 6.36111e-015 -20.517 -9.77578 172.415 -17.2919 -1.59028e-015 2.3233e-015 -8.76396 -11.9352 12.9845 90 -4.72114e-016 -1.98785e-016 
165.738 89.2379 -66.4819 -123.513 85.968 -152.86 1.38161 -1.49791 1.1452 2.7943 -2.96699 2.32753 2.7943 -2.96699 2.32752 -8.30748e-012 -9.0191e-006 -5.27751e-005 -4.75846 52.0865 -11.5637 -177.492 -6.24981 -68.079 13.8855 -15.4747 53.0848 -59.9043 -3.18055e-015 3.18055e-015 -57.2664 -30.5968 -62.2002 -178.299 5.3751 72.4136 22.9219 -6.1468 -58.6119 -55.6137 -3.18055e-015 1.59028e-015 -51.6886 42.1286 57.0255 -25.7287 9.08265 -170.89 -47.6968 -4.77083e-015 -7.95139e-016 8.29693 -1.94765 1.85373 90 -1.59028e-015 3.18055e-015 -19.4121 -7.09866 171.846 -16.458 2.38542e-015 3.60297e-016 -9.42519 -13.0584 14.249 90 7.95139e-016 2.38542e-015 
164.419 89.4462 -65.848 -116.296 84.6952 -159.155 1.38973 -1.30634 1.10859 2.80557 -2.58467 2.24958 2.80557 -2.58467 2.24957 -8.30748e-012 -9.0191e-006 -5.27751e-005 -1.25916 54.9213 -16.5905 -177.769 -5.65214 -68.4186 13.8481 -21.448 49.5985 -58.5692 -4.77083e-015 -3.18055e-015 -60.4471 -31.5718 -67.8803 -178.553 4.91966 73.5901 24.2347 -9.16389 -59.4218 -63.9454 0 3.18055e-015 -54.4315 42.1225 60.0606 -26.9791 8.84085 -171.383 -44.7029 0 -0 5.67518 -1.57041 1.60185 90 7.95139e-016 -0 -19.1721 -5.0753 170.965 -17.9813 7.95139e-016 -1.91951e-015 -7.97547 -13.2626 14.4859 90 -1.19271e-015 3.18055e-015 
